<svg width="86" height="92" viewBox="0 0 86 92" fill="none" xmlns="http://www.w3.org/2000/svg">
<path d="M49.7188 61.4436L74.5583 74.6506C76.0155 75.4254 77.2744 76.5643 78.227 77.9698C79.1796 79.3752 79.7976 81.0053 80.028 82.7204L80.625 87.1642H5.375L5.97196 82.7204C6.20238 81.0053 6.82037 79.3752 7.773 77.9698C8.72562 76.5643 9.98447 75.4254 11.4417 74.6506L36.2812 61.4436H49.7188Z" fill="#026CA2"/>
<path d="M36.2812 61.4436H49.7188V87.1642H36.2812V61.4436Z" fill="#CBCBCB"/>
<path d="M36.2812 55.7279V61.4436L34.9375 65.7304V67.1593H51.0625V65.7304L49.7188 61.4436V55.7279H36.2812Z" fill="#FDC9A6"/>
<path d="M49.7188 55.7279V59.2359C49.7053 59.2466 49.6902 59.2556 49.6768 59.2663C47.6986 60.6905 45.3635 61.4492 42.9746 61.4437C40.5857 61.4383 38.2536 60.6691 36.2812 59.2359V55.7279H49.7188Z" fill="#FDC9A6"/>
<path d="M49.7188 55.7279V59.2359C49.7053 59.2466 49.6902 59.2556 49.6768 59.2663C47.6986 60.6905 45.3635 61.4492 42.9746 61.4437C40.5857 61.4383 38.2536 60.6691 36.2812 59.2359V55.7279H49.7188Z" fill="#E6AF89"/>
<path d="M12.0938 87.1641V81.4485C12.0938 81.0695 12.2353 80.706 12.4873 80.4381C12.7393 80.1701 13.0811 80.0195 13.4375 80.0195C13.7939 80.0195 14.1357 80.1701 14.3877 80.4381C14.6397 80.706 14.7812 81.0695 14.7812 81.4485V87.1641H12.0938Z" fill="#015078"/>
<path d="M71.2188 87.1641V81.4485C71.2188 81.0695 71.3603 80.706 71.6123 80.4381C71.8643 80.1701 72.2061 80.0195 72.5625 80.0195C72.9189 80.0195 73.2607 80.1701 73.5127 80.4381C73.7647 80.706 73.9062 81.0695 73.9062 81.4485V87.1641H71.2188Z" fill="#015078"/>
<path d="M38.7767 69.4047L40.3125 74.3039H45.6875L47.2232 69.4047L43 67.1593L38.7767 69.4047Z" fill="#0296E5"/>
<path d="M40.3125 74.3038L38.9688 87.1641H47.0312L45.6875 74.3038H40.3125Z" fill="#026CA2"/>
<path d="M60.6241 30.708L61.1987 28.2788C61.8033 25.7229 61.8203 23.0497 61.2483 20.4853C60.6763 17.9209 59.5321 15.5406 57.9124 13.5457C56.2681 11.2092 54.0197 9.43227 51.4416 8.43193C48.8635 7.4316 46.0673 7.25113 43.3943 7.91257C42.5031 8.13334 41.6152 8.35286 40.768 8.56219C38.938 9.01408 37.2243 9.88968 35.7491 11.1266C34.2738 12.3635 33.0733 13.9312 32.2331 15.7181H31.8764C30.7355 15.7181 29.6104 16.0006 28.59 16.5431C27.5696 17.0857 26.682 17.8733 25.9975 18.8438C24.828 20.502 24.3258 22.5862 24.6015 24.6381L25.5144 31.4362L26.0037 35.723H59.1249L60.231 32.1494C60.3783 31.6739 60.5093 31.1935 60.6241 30.708Z" fill="#55300B"/>
<path d="M43 58.5857C40.62 58.5856 38.2946 57.8272 36.3237 56.4083C34.3529 54.9895 32.8271 52.9752 31.9431 50.6253C30.3704 46.4445 29.5625 41.9829 29.5625 37.48V27.1494L33.5938 19.8744C35.7213 22.1781 38.2591 24.0079 41.0591 25.257C43.859 26.5061 46.865 27.1494 49.9013 27.1494H56.4375V37.48C56.4376 41.9831 55.6296 46.445 54.0569 50.626C53.1728 52.9758 51.6469 54.9899 49.6761 56.4086C47.7053 57.8274 45.38 58.5857 43 58.5857V58.5857Z" fill="#FDC9A6"/>
<path d="M51.0625 32.8652H47.0312C46.6749 32.8652 46.3331 32.7146 46.0811 32.4466C45.8291 32.1787 45.6875 31.8152 45.6875 31.4362C45.6875 31.0573 45.8291 30.6938 46.0811 30.4258C46.3331 30.1579 46.6749 30.0073 47.0312 30.0073H51.0625C51.4189 30.0073 51.7607 30.1579 52.0127 30.4258C52.2647 30.6938 52.4062 31.0573 52.4062 31.4362C52.4062 31.8152 52.2647 32.1787 52.0127 32.4466C51.7607 32.7146 51.4189 32.8652 51.0625 32.8652Z" fill="#55300B"/>
<path d="M48.7109 37.8664C49.6386 37.8664 50.3906 37.0667 50.3906 36.0802C50.3906 35.0938 49.6386 34.2941 48.7109 34.2941C47.7833 34.2941 47.0312 35.0938 47.0312 36.0802C47.0312 37.0667 47.7833 37.8664 48.7109 37.8664Z" fill="#55300B"/>
<path d="M38.9688 32.8652H34.9375C34.5811 32.8652 34.2393 32.7146 33.9873 32.4466C33.7353 32.1787 33.5938 31.8152 33.5938 31.4362C33.5938 31.0573 33.7353 30.6938 33.9873 30.4258C34.2393 30.1579 34.5811 30.0073 34.9375 30.0073H38.9688C39.3251 30.0073 39.6669 30.1579 39.9189 30.4258C40.1709 30.6938 40.3125 31.0573 40.3125 31.4362C40.3125 31.8152 40.1709 32.1787 39.9189 32.4466C39.6669 32.7146 39.3251 32.8652 38.9688 32.8652Z" fill="#55300B"/>
<path d="M37.2891 37.8664C38.2167 37.8664 38.9688 37.0667 38.9688 36.0802C38.9688 35.0938 38.2167 34.2941 37.2891 34.2941C36.3614 34.2941 35.6094 35.0938 35.6094 36.0802C35.6094 37.0667 36.3614 37.8664 37.2891 37.8664Z" fill="#55300B"/>
<path d="M45.6875 50.0121H40.3125C39.9561 50.0121 39.6143 49.8616 39.3623 49.5936C39.1103 49.3256 38.9688 48.9622 38.9688 48.5832C38.9688 48.2042 39.1103 47.8408 39.3623 47.5728C39.6143 47.3048 39.9561 47.1543 40.3125 47.1543H45.6875C46.0439 47.1543 46.3857 47.3048 46.6377 47.5728C46.8897 47.8408 47.0312 48.2042 47.0312 48.5832C47.0312 48.9622 46.8897 49.3256 46.6377 49.5936C46.3857 49.8616 46.0439 50.0121 45.6875 50.0121Z" fill="#E6AF89"/>
<path d="M44.3438 44.2965H41.6562C41.2999 44.2965 40.9581 44.1459 40.7061 43.8779C40.4541 43.61 40.3125 43.2465 40.3125 42.8675V38.5808C40.3125 38.2018 40.4541 37.8384 40.7061 37.5704C40.9581 37.3024 41.2999 37.1519 41.6562 37.1519C42.0126 37.1519 42.3544 37.3024 42.6064 37.5704C42.8584 37.8384 43 38.2018 43 38.5808V41.4386H44.3438C44.7001 41.4386 45.0419 41.5892 45.2939 41.8571C45.5459 42.1251 45.6875 42.4886 45.6875 42.8675C45.6875 43.2465 45.5459 43.61 45.2939 43.8779C45.0419 44.1459 44.7001 44.2965 44.3438 44.2965Z" fill="#E6AF89"/>
<path d="M29.5625 31.4362H27.7054C26.7724 31.4362 25.8776 31.8303 25.2179 32.5318C24.5581 33.2334 24.1875 34.1849 24.1875 35.1771V37.6977C24.1875 38.2784 24.3147 38.8512 24.5589 39.3706C24.851 39.992 25.3002 40.5146 25.8559 40.8799C26.4117 41.2451 27.0521 41.4386 27.7054 41.4386H30.0664L29.5625 31.4362Z" fill="#FDC9A6"/>
<path d="M56.4375 31.4362H58.2946C59.2276 31.4362 60.1224 31.8303 60.7821 32.5318C61.4419 33.2334 61.8125 34.1849 61.8125 35.1771V37.6977C61.8125 38.2784 61.6853 38.8512 61.4411 39.3706C61.149 39.992 60.6998 40.5146 60.1441 40.8799C59.5883 41.2451 58.9479 41.4386 58.2946 41.4386H55.9336L56.4375 31.4362Z" fill="#FDC9A6"/>
<path d="M36.2812 61.4436L43 67.1593L34.9375 71.4461V65.7304L36.2812 61.4436Z" fill="#EBEBEB"/>
<path d="M49.7188 61.4436L43 67.1593L51.0625 71.4461V65.7304L49.7188 61.4436Z" fill="#EBEBEB"/>
<path d="M36.2812 87.1642H29.5625L25.5312 74.3039L36.2812 61.4436V87.1642Z" fill="#0296E5"/>
<path d="M49.7188 87.1642H56.4375L60.4688 74.3039L49.7188 61.4436V87.1642Z" fill="#0296E5"/>
</svg>
