<svg width="24" height="24" viewBox="0 0 24 24" fill="none" xmlns="http://www.w3.org/2000/svg">
<path d="M21.1651 8.06002L19.0251 14.82C18.8651 15.3 18.4451 15.62 17.9451 15.62H9.68511C9.20511 15.62 8.74511 15.32 8.58511 14.88L5.44512 6.42003H3.60511C3.16511 6.42003 2.80511 6.06003 2.80511 5.62003C2.80511 5.18003 3.16511 4.82003 3.60511 4.82003H5.98511C6.32511 4.82003 6.62512 5.04002 6.74512 5.36002L10.0051 14H17.6051L19.3051 8.60001H9.88511C9.44511 8.60001 9.08511 8.24001 9.08511 7.80001C9.08511 7.36001 9.44511 7.00001 9.88511 7.00001H20.4051C20.6651 7.00001 20.9051 7.14 21.0451 7.34C21.2051 7.54 21.2451 7.82002 21.1651 8.06002ZM10.0851 16.66C9.74511 16.66 9.40511 16.8 9.16511 17.04C8.92511 17.28 8.78511 17.62 8.78511 17.96C8.78511 18.3 8.92511 18.64 9.16511 18.88C9.40511 19.12 9.74511 19.26 10.0851 19.26C10.4251 19.26 10.7651 19.12 11.0051 18.88C11.2451 18.64 11.3851 18.3 11.3851 17.96C11.3851 17.62 11.2451 17.28 11.0051 17.04C10.7651 16.8 10.4251 16.66 10.0851 16.66ZM17.2651 16.66C16.9251 16.66 16.5851 16.8 16.3451 17.04C16.1051 17.28 15.9651 17.62 15.9651 17.96C15.9651 18.3 16.1051 18.64 16.3451 18.88C16.5851 19.12 16.9251 19.26 17.2651 19.26C17.6051 19.26 17.9451 19.12 18.1851 18.88C18.4251 18.64 18.5651 18.3 18.5651 17.96C18.5651 17.62 18.4251 17.28 18.1851 17.04C17.9451 16.8 17.6051 16.66 17.2651 16.66Z" fill="white"/>
</svg>
