<svg width="24" height="24" viewBox="0 0 24 24" fill="none" xmlns="http://www.w3.org/2000/svg">
<path d="M19.825 4.44004L18.3851 2.98005C18.2651 2.86005 18.1251 2.80005 17.9651 2.80005C17.8051 2.80005 17.645 2.86005 17.545 2.98005L9.16506 11.4801C9.10506 11.5401 9.06505 11.6001 9.02505 11.6801L8.08506 14.0601C8.00506 14.2801 8.04505 14.54 8.22505 14.7C8.34505 14.82 8.48504 14.8801 8.64504 14.8801C8.72504 14.8801 8.78506 14.86 8.86506 14.84L11.225 13.9C11.305 13.86 11.365 13.8201 11.425 13.7601L19.8051 5.26006C20.0651 5.04006 20.065 4.66004 19.825 4.44004ZM10.6851 12.84L9.72505 13.22L10.1051 12.24L17.9651 4.26006L18.5651 4.86006L10.6851 12.84ZM16.8051 12.12V20.2C16.8051 20.64 16.4051 21 15.9651 21H4.60505C4.16505 21 3.80505 20.64 3.80505 20.2V4.96006C3.80505 4.52006 4.16505 4.20005 4.60505 4.20005H12.925C13.365 4.20005 13.725 4.56005 13.725 5.00005C13.725 5.44005 13.365 5.80005 12.925 5.80005H5.40505V19.4H15.2051V12.12C15.2051 11.68 15.5651 11.32 16.0051 11.32C16.4451 11.32 16.8051 11.68 16.8051 12.12Z" fill="#F8B459"/>
</svg>
