<svg width="24" height="24" viewBox="0 0 24 24" fill="none" xmlns="http://www.w3.org/2000/svg">
<path d="M20.4851 19.44C20.8051 19.76 20.8051 20.26 20.4851 20.58C20.3251 20.74 20.1251 20.82 19.9251 20.82C19.7251 20.82 19.5051 20.74 19.3451 20.58L15.0051 16.26V18.32C15.0051 18.76 14.6451 19.12 14.2051 19.12C13.7651 19.12 13.4051 18.76 13.4051 18.32V14.32C13.4051 14.1 13.5051 13.9 13.6451 13.76C13.8051 13.62 14.0051 13.52 14.2251 13.52H18.2251C18.6651 13.52 19.0251 13.88 19.0251 14.32C19.0251 14.76 18.6651 15.12 18.2251 15.12H16.1651L20.4851 19.44ZM14.1851 10.6H18.1851C18.6251 10.6 18.9851 10.24 18.9851 9.79996C18.9851 9.35996 18.6251 8.99996 18.1851 8.99996H16.1251L20.5651 4.55996C20.8851 4.23996 20.8851 3.73996 20.5651 3.43996C20.2451 3.11996 19.7451 3.13996 19.4451 3.43996L15.0051 7.89996V5.83996C15.0051 5.39996 14.6451 5.01995 14.2051 5.01995C13.7651 5.01995 13.4051 5.37995 13.4051 5.81995V9.81995C13.4051 10.04 13.4851 10.22 13.6451 10.38C13.7851 10.52 13.9851 10.6 14.1851 10.6ZM9.78508 5.05996C9.34508 5.05996 9.00508 5.41996 9.00508 5.85996V7.91995L4.58508 3.49996C4.26508 3.17996 3.76507 3.17996 3.44507 3.49996C3.12507 3.81996 3.12507 4.29996 3.44507 4.59996L7.84507 8.97996H5.80508V8.99996C5.40508 8.99996 4.98508 9.37995 4.98508 9.81995C4.98508 10.26 5.34508 10.62 5.78508 10.62H9.78508C9.98508 10.62 10.1851 10.54 10.3451 10.38C10.5051 10.22 10.5651 10.02 10.5651 9.81995V5.81995C10.5851 5.41995 10.2251 5.05996 9.78508 5.05996ZM9.74507 13.4H5.74507C5.30507 13.4 4.94507 13.76 4.94507 14.2C4.94507 14.64 5.30507 15 5.74507 15H7.80508L3.44507 19.4C3.12507 19.72 3.12507 20.24 3.44507 20.54C3.60507 20.7 3.80508 20.78 4.00508 20.78C4.20508 20.78 4.44508 20.7 4.60508 20.54L9.00508 16.18V18.24C9.00508 18.68 9.32509 18.98 9.76509 18.98H9.74507C10.1851 18.98 10.5451 18.66 10.5451 18.22V14.24C10.5451 14.02 10.4651 13.8 10.3051 13.64C10.1651 13.5 9.96507 13.4 9.74507 13.4Z" fill="white"/>
</svg>
