<svg width="24" height="24" viewBox="0 0 24 24" fill="none" xmlns="http://www.w3.org/2000/svg">
<path d="M20.4051 12.6C20.2051 12.6 20.0051 12.52 19.8451 12.38L12.0051 4.72004L4.16505 12.38C3.84505 12.68 3.34505 12.6801 3.02505 12.3601C2.72505 12.0401 2.72505 11.54 3.04505 11.22L11.4451 3.02004C11.7651 2.72004 12.245 2.72004 12.565 3.02004L20.965 11.22C21.285 11.52 21.2851 12.0401 20.9851 12.3601C20.8251 12.5201 20.6051 12.6 20.4051 12.6ZM18.6451 20.4V12.58C18.6451 12.14 18.2851 11.78 17.8451 11.78C17.4051 11.78 17.0451 12.14 17.0451 12.58V19.6H14.5451V15.32C14.5451 14.74 14.0651 14.2601 13.4851 14.2601H10.5051C9.92505 14.2601 9.44505 14.74 9.44505 15.32V19.6H6.94505V12.58C6.94505 12.14 6.58505 11.78 6.14505 11.78C5.70505 11.78 5.34505 12.14 5.34505 12.58V20.4C5.34505 20.84 5.70505 21.2 6.14505 21.2H10.2451C10.6851 21.2 11.0451 20.84 11.0451 20.4V15.8601H12.9451V20.4C12.9451 20.84 13.3051 21.2 13.7451 21.2H17.8451C18.3051 21.2 18.6451 20.84 18.6451 20.4Z" fill="#F8B459"/>
</svg>
