<svg width="25" height="24" viewBox="0 0 25 24" fill="none" xmlns="http://www.w3.org/2000/svg">
<path d="M20.6292 12.6C20.4271 12.6 20.2249 12.52 20.0631 12.38L12.1369 4.72004L4.21078 12.38C3.88727 12.68 3.38177 12.6801 3.05825 12.3601C2.75496 12.0401 2.75496 11.54 3.07848 11.22L11.5708 3.02004C11.8943 2.72004 12.3796 2.72004 12.7031 3.02004L21.1954 11.22C21.5189 11.52 21.5189 12.0401 21.2156 12.3601C21.0539 12.5201 20.8314 12.6 20.6292 12.6ZM18.8499 20.4V12.58C18.8499 12.14 18.486 11.78 18.0411 11.78C17.5963 11.78 17.2323 12.14 17.2323 12.58V19.6H14.7049V15.32C14.7049 14.74 14.2196 14.2601 13.6332 14.2601H10.6205C10.0341 14.2601 9.54881 14.74 9.54881 15.32V19.6H7.02134V12.58C7.02134 12.14 6.65738 11.78 6.21255 11.78C5.76771 11.78 5.40376 12.14 5.40376 12.58V20.4C5.40376 20.84 5.76771 21.2 6.21255 21.2H10.3576C10.8024 21.2 11.1664 20.84 11.1664 20.4V15.8601H13.0873V20.4C13.0873 20.84 13.4512 21.2 13.8961 21.2H18.0411C18.5062 21.2 18.8499 20.84 18.8499 20.4Z" fill="#B2B5C6"/>
</svg>
