<svg width="25" height="24" viewBox="0 0 25 24" fill="none" xmlns="http://www.w3.org/2000/svg">
<path d="M12.137 14.2201C15.1296 14.2201 17.5762 11.8001 17.5762 8.82006C17.5762 5.84006 15.1296 3.42006 12.137 3.42006C9.14451 3.42006 6.69792 5.84006 6.69792 8.82006C6.69792 11.8001 9.14451 14.2201 12.137 14.2201ZM12.137 5.00004C14.2399 5.00004 15.9586 6.70004 15.9586 8.80004C15.9586 10.9 14.2399 12.6 12.137 12.6C10.0342 12.6 8.3155 10.9 8.3155 8.80004C8.3155 6.70004 10.0342 5.00004 12.137 5.00004ZM14.6645 14.74C14.4017 14.66 14.0984 14.72 13.8962 14.9L12.137 16.38L10.3779 14.9C10.1555 14.72 9.87242 14.66 9.60956 14.74C8.47726 15.1 2.83594 17.02 2.83594 19.8C2.83594 20.24 3.19989 20.6 3.64473 20.6H20.6293C21.0742 20.6 21.4381 20.24 21.4381 19.8C21.4381 17.02 15.7968 15.1 14.6645 14.74ZM4.87814 19C5.76781 18.06 7.9111 17.0201 9.69044 16.4201L11.6113 18.04C11.9146 18.3 12.3595 18.3 12.6628 18.04L14.5836 16.4201C16.363 17.0401 18.5063 18.08 19.3959 19H4.87814Z" fill="#B2B5C6"/>
</svg>
