<svg width="24" height="24" viewBox="0 0 24 24" fill="none" xmlns="http://www.w3.org/2000/svg">
<path fill-rule="evenodd" clip-rule="evenodd" d="M9.26536 2.90001C10.3179 2.90001 10.693 2.90613 11.0346 2.99055C11.3594 3.07082 11.669 3.20312 11.9515 3.38234C12.2486 3.57083 12.5123 3.83767 13.2399 4.59829L19.1047 10.7297C19.684 11.3353 20.0809 11.7512 20.3632 12.0987C20.6389 12.4378 20.7547 12.6524 20.8111 12.8356C20.9396 13.2534 20.9347 13.7008 20.7968 14.1156C20.7364 14.2975 20.6158 14.5095 20.3328 14.8424C20.0428 15.1835 19.6367 15.5905 19.0441 16.1831L16.1831 19.0441C15.5905 19.6367 15.1835 20.0428 14.8424 20.3328C14.5095 20.6158 14.2975 20.7364 14.1156 20.7968C13.7008 20.9347 13.2534 20.9396 12.8356 20.8111C12.6524 20.7547 12.4378 20.6389 12.0987 20.3632C11.7512 20.0809 11.3353 19.684 10.7297 19.1047L4.59829 13.2399C3.83767 12.5123 3.57083 12.2486 3.38234 11.9515C3.20312 11.669 3.07082 11.3594 2.99055 11.0346C2.90613 10.693 2.90001 10.3179 2.90001 9.26536V6.80001C2.90001 5.94508 2.90071 5.35801 2.93789 4.90291C2.97422 4.45831 3.04083 4.21948 3.1289 4.04663C3.33023 3.65149 3.65149 3.33023 4.04663 3.1289C4.21948 3.04083 4.45831 2.97422 4.90291 2.93789C5.35801 2.90071 5.94508 2.90001 6.80001 2.90001H9.26536ZM11.4665 1.24313C10.8858 1.09962 10.278 1.09977 9.37499 1.09999L9.26536 1.10001H6.80001H6.76231C5.95426 1.1 5.29341 1.09999 4.75633 1.14387C4.20041 1.18929 3.69834 1.28617 3.22945 1.52509C2.49562 1.89899 1.89899 2.49562 1.52509 3.22945C1.28617 3.69834 1.18929 4.20041 1.14387 4.75633C1.09999 5.29341 1.1 5.95426 1.10001 6.76231V6.80001V9.26536L1.09999 9.37499C1.09977 10.278 1.09962 10.8858 1.24313 11.4665C1.37 11.9798 1.57912 12.4692 1.8624 12.9158C2.18282 13.4208 2.62214 13.8409 3.27485 14.4649L3.35409 14.5406L9.48546 20.4054L9.51236 20.4312C10.0845 20.9784 10.5528 21.4264 10.9635 21.7601C11.3889 22.1059 11.8109 22.379 12.3061 22.5314C13.0819 22.7702 13.9129 22.761 14.6833 22.505C15.1749 22.3416 15.5907 22.0592 16.0084 21.7041C16.4115 21.3613 16.8697 20.9031 17.4295 20.3433L17.4296 20.3432L17.4559 20.3169L20.3169 17.4559L20.3432 17.4296L20.3433 17.4295C20.9031 16.8697 21.3613 16.4115 21.7041 16.0084C22.0592 15.5907 22.3416 15.1749 22.505 14.6833C22.761 13.9129 22.7702 13.0819 22.5314 12.3061C22.379 11.8109 22.1059 11.3889 21.7601 10.9635C21.4264 10.5528 20.9784 10.0845 20.4312 9.51237L20.4054 9.48545L14.5406 3.35409L14.4649 3.27485C13.8409 2.62214 13.4208 2.18283 12.9158 1.8624C12.4692 1.57912 11.9798 1.37 11.4665 1.24313ZM6.90004 8.5C6.90004 7.61635 7.61638 6.9 8.50004 6.9C9.38369 6.9 10.1 7.61635 10.1 8.5C10.1 9.38366 9.38369 10.1 8.50004 10.1C7.61638 10.1 6.90004 9.38366 6.90004 8.5ZM8.50004 5.1C6.62227 5.1 5.10004 6.62224 5.10004 8.5C5.10004 10.3778 6.62227 11.9 8.50004 11.9C10.3778 11.9 11.9 10.3778 11.9 8.5C11.9 6.62224 10.3778 5.1 8.50004 5.1Z" fill="#262F56"/>
</svg>
