<svg width="24" height="24" viewBox="0 0 24 24" fill="none" xmlns="http://www.w3.org/2000/svg">
<path d="M14.8049 14.94V18.6C14.8049 19.04 14.4849 19.4 14.0449 19.4H3.60493C3.16493 19.4 2.80493 19.04 2.80493 18.6V5.39998C2.80493 4.95998 3.16493 4.59998 3.60493 4.59998H14.0449C14.4849 4.59998 14.8049 4.95998 14.8049 5.39998V9.05999C14.8049 9.49999 14.4449 9.85998 14.0049 9.85998C13.5649 9.85998 13.2049 9.49999 13.2049 9.05999V6.19998H4.40493V17.8H13.2049V14.94C13.2049 14.5 13.5649 14.14 14.0049 14.14C14.4449 14.14 14.8049 14.5 14.8049 14.94ZM20.9649 11.4L17.825 8.23997C17.505 7.91997 17.0049 7.91997 16.6849 8.23997C16.3649 8.55997 16.3649 9.05996 16.6849 9.37996L18.4649 11.18L8.76494 11.2C8.32494 11.2 7.96494 11.56 7.96494 12C7.96494 12.44 8.32494 12.8 8.76494 12.8L18.4649 12.78L16.6849 14.58C16.3649 14.9 16.3849 15.4 16.6849 15.72C16.8449 15.88 17.0449 15.96 17.2449 15.96C17.4449 15.96 17.6649 15.88 17.8049 15.72L20.9449 12.56C21.2849 12.22 21.2849 11.72 20.9649 11.4Z" fill="#F8B459"/>
</svg>
