<svg width="24" height="24" viewBox="0 0 24 24" fill="none" xmlns="http://www.w3.org/2000/svg">
<path d="M20.1451 7.20001C19.3251 5.38001 17.6051 4.20001 15.7451 4.20001C13.8851 4.20001 12.6851 5.02001 11.9851 5.90001C11.2851 5.02001 10.0851 4.20001 8.22515 4.20001C6.36515 4.20001 4.64515 5.38001 3.82515 7.20001C2.98515 9.10001 3.34514 11.2 4.80514 12.84C8.30514 16.78 11.4051 19.56 11.4451 19.58C11.6051 19.72 11.7851 19.78 11.9851 19.78C12.1851 19.78 12.3651 19.72 12.5251 19.58C12.5651 19.56 15.6451 16.76 19.1651 12.84C20.6451 11.2 21.0051 9.10001 20.1451 7.20001ZM17.9851 11.78C15.3851 14.68 13.0251 16.96 12.0051 17.9C10.9851 16.94 8.62515 14.68 6.02515 11.76C4.98515 10.58 4.72514 9.16001 5.30514 7.82001C5.84514 6.60001 7.02514 5.76002 8.24514 5.76002C10.6251 5.76002 11.1651 7.54002 11.2251 7.76002C11.3051 8.12002 11.6251 8.36002 11.9851 8.36002C12.3451 8.36002 12.6651 8.10002 12.7651 7.76002C12.8251 7.56002 13.3651 5.76002 15.7451 5.76002C16.9451 5.76002 18.1251 6.58001 18.6851 7.82001C19.2851 9.18001 19.0251 10.6 17.9851 11.78ZM17.7851 9.46002C17.8051 9.84002 17.5251 10.18 17.1251 10.2C17.1051 10.2 17.0851 10.2 17.0851 10.2C16.7251 10.2 16.4051 9.92 16.3851 9.54C16.3051 8.4 15.5651 8.22001 15.4251 8.20001C15.0451 8.14001 14.7851 7.80001 14.8251 7.42001C14.8851 7.04001 15.2451 6.78001 15.6251 6.82001C16.3251 6.92001 17.6651 7.60002 17.7851 9.46002ZM16.8251 10.62C16.9851 10.78 17.0651 10.98 17.0651 11.18C17.0651 11.4 16.9851 11.6 16.8251 11.74C16.6851 11.9 16.4651 11.98 16.2651 11.98C16.0651 11.98 15.8451 11.9 15.7051 11.74C15.5451 11.6 15.4651 11.38 15.4651 11.18C15.4651 10.98 15.5451 10.76 15.7051 10.62C15.8451 10.48 16.0651 10.38 16.2651 10.38C16.4651 10.4 16.6651 10.48 16.8251 10.62Z" fill="#F8B459"/>
</svg>
