<svg width="24" height="24" viewBox="0 0 24 24" fill="none" xmlns="http://www.w3.org/2000/svg">
<path d="M12.0051 14.2201C14.9651 14.2201 17.3851 11.8001 17.3851 8.82006C17.3851 5.84006 14.9651 3.42006 12.0051 3.42006C9.04505 3.42006 6.62506 5.84006 6.62506 8.82006C6.62506 11.8001 9.04505 14.2201 12.0051 14.2201ZM12.0051 5.00004C14.0851 5.00004 15.7851 6.70004 15.7851 8.80004C15.7851 10.9 14.0851 12.6 12.0051 12.6C9.92505 12.6 8.22506 10.9 8.22506 8.80004C8.22506 6.70004 9.92505 5.00004 12.0051 5.00004ZM14.5051 14.74C14.2451 14.66 13.9451 14.72 13.7451 14.9L12.0051 16.38L10.2651 14.9C10.0451 14.72 9.76505 14.66 9.50505 14.74C8.38505 15.1 2.80505 17.02 2.80505 19.8C2.80505 20.24 3.16505 20.6 3.60505 20.6H20.4051C20.8451 20.6 21.2051 20.24 21.2051 19.8C21.2051 17.02 15.6251 15.1 14.5051 14.74ZM4.82505 19C5.70505 18.06 7.82505 17.0201 9.58505 16.4201L11.4851 18.04C11.7851 18.3 12.2251 18.3 12.5251 18.04L14.4251 16.4201C16.1851 17.0401 18.3051 18.08 19.1851 19H4.82505Z" fill="#F8B459"/>
</svg>
