<svg width="24" height="24" viewBox="0 0 24 24" fill="none" xmlns="http://www.w3.org/2000/svg">
<path d="M14.365 3.26001C10.945 3.26001 8.16497 6.08001 8.16497 9.52001C8.16497 10.98 8.66497 12.3 9.48497 13.38L3.60498 19.32C3.26498 19.68 3.26498 20.24 3.60498 20.58C3.78498 20.76 4.00498 20.84 4.22498 20.84C4.46498 20.84 4.68497 20.76 4.86497 20.58L10.745 14.62C11.765 15.36 13.005 15.78 14.345 15.78C17.765 15.78 20.545 12.96 20.545 9.52001C20.565 6.06001 17.785 3.26001 14.365 3.26001ZM14.365 14.2C11.825 14.2 9.76497 12.1 9.76497 9.52001C9.76497 6.94001 11.825 4.84001 14.365 4.84001C16.905 4.84001 18.965 6.94001 18.965 9.52001C18.965 12.1 16.905 14.2 14.365 14.2ZM17.465 9.60001C17.425 9.94001 17.125 10.2 16.785 10.2C16.745 10.2 16.725 10.2 16.685 10.2C16.305 10.14 16.045 9.80001 16.085 9.42001C16.225 8.38001 15.065 7.84001 15.005 7.82001C14.665 7.66001 14.505 7.24001 14.665 6.90001C14.825 6.56001 15.225 6.40001 15.585 6.54001C15.665 6.56001 17.745 7.52001 17.465 9.60001ZM16.005 11.12C16.145 11.26 16.245 11.48 16.245 11.68C16.245 11.9 16.165 12.1 16.005 12.24C15.865 12.38 15.645 12.48 15.445 12.48C15.245 12.48 15.025 12.4 14.885 12.24C14.745 12.1 14.645 11.88 14.645 11.68C14.645 11.48 14.725 11.26 14.885 11.12C15.025 10.98 15.245 10.88 15.445 10.88C15.645 10.88 15.845 10.96 16.005 11.12Z" fill="#F8B459"/>
</svg>
