<svg width="24" height="24" viewBox="0 0 24 24" fill="none" xmlns="http://www.w3.org/2000/svg">
<path d="M12.7851 20.4C12.7451 20.4 12.7051 20.4 12.6651 20.38C12.3051 20.32 12.0251 20.04 12.0051 19.68L11.3051 12.72L4.34512 12.02C3.98512 11.98 3.68512 11.7 3.64512 11.36C3.58512 11 3.78513 10.66 4.10513 10.5L19.3051 3.67998C19.6051 3.53998 19.9651 3.59997 20.2051 3.83997C20.4451 4.07997 20.5051 4.43997 20.3651 4.73997L13.5451 19.94C13.3851 20.22 13.0851 20.4 12.7851 20.4ZM7.46514 10.74L12.0851 11.22C12.4651 11.26 12.7651 11.56 12.8051 11.94L13.2851 16.56L18.0051 5.99997L7.46514 10.74Z" fill="white"/>
</svg>
