<svg width="24" height="24" viewBox="0 0 24 24" fill="none" xmlns="http://www.w3.org/2000/svg">
<path d="M17.4051 18.1V19.0999C17.4051 19.54 17.0251 19.8 16.5851 19.8H3.52505C3.08505 19.8 2.80505 19.5599 2.80505 19.0999V9.19995C2.80505 8.75995 3.08505 8.35995 3.52505 8.35995H5.86505C6.30505 8.35995 6.66505 8.71995 6.66505 9.15995C6.66505 9.59995 6.30505 9.95995 5.86505 9.95995H4.40505V18.2H15.8051V18.1C15.8051 17.66 16.1651 17.3 16.6051 17.3C17.0651 17.28 17.4051 17.66 17.4051 18.1ZM20.9651 10.64L16.0051 15.7C15.7651 15.94 15.425 16 15.125 15.88C14.825 15.76 14.625 15.46 14.625 15.14V12.9599C13.025 12.9199 9.18506 13.08 7.78506 15.54C7.64506 15.8 7.36506 15.9599 7.08506 15.9599C7.02506 15.9599 6.94506 15.96 6.88506 15.94C6.52506 15.84 6.28506 15.5199 6.28506 15.1599C6.28506 15.0199 6.28505 11.94 8.60505 9.63995C10.0651 8.15995 12.025 7.35995 14.625 7.21995V4.99995C14.625 4.67995 14.825 4.37995 15.125 4.25995C15.425 4.13995 15.7851 4.19995 16.0051 4.43995L20.9851 9.49995C21.2851 9.81995 21.2851 10.32 20.9651 10.64ZM19.2451 10.0599L16.2051 6.97996V7.95995C16.2051 8.39995 15.8651 8.75995 15.4051 8.75995C12.9251 8.75995 11.025 9.41995 9.72505 10.74C9.12505 11.34 8.72505 12 8.46505 12.64C10.3451 11.52 12.7251 11.3199 14.1851 11.3199C14.9451 11.3199 15.4451 11.38 15.5051 11.38C15.9051 11.42 16.2051 11.78 16.2051 12.18V13.1599L19.2451 10.0599Z" fill="#F8B459"/>
</svg>
