<svg width="24" height="24" viewBox="0 0 24 24" fill="none" xmlns="http://www.w3.org/2000/svg">
<path d="M8.24502 11.24L12.765 15.7601C12.945 15.9401 13.185 16.04 13.425 16.04C13.665 16.04 13.905 15.9401 14.085 15.7601L15.765 14.08C15.945 13.9 16.045 13.6801 16.045 13.4201C16.045 13.1801 15.945 12.9401 15.765 12.7601L11.245 8.24004C11.065 8.06004 10.845 7.96006 10.585 7.96006C10.345 7.96006 10.105 8.06004 9.92503 8.24004L8.24502 9.92007C7.88502 10.2801 7.88502 10.88 8.24502 11.24ZM10.585 9.28003L14.725 13.4201L13.425 14.7201L9.28504 10.58L10.585 9.28003ZM20.965 13.9L10.105 3.04004C9.78503 2.72004 9.28504 2.72004 8.96504 3.04004L7.44502 4.56006C7.22502 4.78006 7.14504 5.12007 7.26504 5.42007C7.48504 5.96007 7.34502 6.56006 6.94502 6.96006C6.54502 7.36006 5.94503 7.48003 5.40503 7.28003C5.10503 7.16003 4.76502 7.24006 4.54502 7.46006L3.02503 8.98003C2.86503 9.14003 2.78504 9.34004 2.78504 9.54004C2.78504 9.74004 2.86503 9.96005 3.02503 10.1L13.885 20.9601C14.045 21.1201 14.245 21.2001 14.445 21.2001C14.645 21.2001 14.865 21.1201 15.005 20.9601L16.525 19.44C16.745 19.22 16.825 18.88 16.705 18.58C16.485 18.04 16.625 17.44 17.025 17.04C17.425 16.64 18.025 16.5201 18.565 16.7201C18.865 16.8401 19.205 16.76 19.425 16.54L20.945 15.0201C21.285 14.7001 21.285 14.2 20.965 13.9ZM18.645 15.08C17.665 14.88 16.625 15.1801 15.905 15.9201C15.185 16.6401 14.885 17.6801 15.065 18.6601L14.445 19.28L4.72503 9.56006L5.34502 8.94004C6.32502 9.14004 7.36504 8.84005 8.08504 8.10005C8.80504 7.38005 9.10503 6.34006 8.92503 5.36006L9.54502 4.74004L19.265 14.4601L18.645 15.08Z" fill="#F8B459"/>
</svg>
